<svg id="Layer_1" height="512" viewBox="0 0 128 128" width="512" xmlns="http://www.w3.org/2000/svg" data-name="Layer 1"><path d="m121.5 22.44h-115a1.751 1.751 0 0 0 -1.75 1.75v53.56a1.751 1.751 0 0 0 1.75 1.75h7.1v6.246a1.751 1.751 0 0 0 1.75 1.75h97.308a1.751 1.751 0 0 0 1.75-1.75v-6.246h7.1a1.751 1.751 0 0 0 1.75-1.75v-53.56a1.751 1.751 0 0 0 -1.758-1.75zm-104.4 61.56v-6.211c0-.013 0-.026 0-.039s0-.026 0-.039v-6.211h93.8v6.215.039s0 .026 0 .039v6.207zm102.65-8h-5.35v-6.254a1.75 1.75 0 0 0 -1.75-1.75h-97.304a1.75 1.75 0 0 0 -1.75 1.75v6.254h-5.346v-50.06h111.5z"/><path d="m96.5 76h-65a1.75 1.75 0 0 0 0 3.5h65a1.75 1.75 0 0 0 0-3.5z"/><path d="m32.173 104.744a6.245 6.245 0 0 0 2.577-4.911 1.75 1.75 0 0 0 -3.5 0c0 .987-.436 1.422-1.423 2.313a5.968 5.968 0 0 0 0 9.822c.987.891 1.423 1.326 1.423 2.313s-.436 1.42-1.422 2.31a6.24 6.24 0 0 0 -2.578 4.909 1.75 1.75 0 0 0 3.5 0c0-.985.436-1.42 1.422-2.31a5.964 5.964 0 0 0 0-9.819c-.987-.892-1.423-1.327-1.423-2.314s.437-1.422 1.424-2.313z"/><path d="m48.673 104.744a6.245 6.245 0 0 0 2.577-4.911 1.75 1.75 0 0 0 -3.5 0c0 .987-.436 1.422-1.423 2.313a5.968 5.968 0 0 0 0 9.822c.987.891 1.423 1.326 1.423 2.313s-.436 1.42-1.422 2.31a6.24 6.24 0 0 0 -2.578 4.909 1.75 1.75 0 0 0 3.5 0c0-.985.436-1.42 1.422-2.31a5.964 5.964 0 0 0 0-9.819c-.987-.892-1.423-1.327-1.423-2.314s.437-1.422 1.424-2.313z"/><path d="m65.173 104.744a6.245 6.245 0 0 0 2.577-4.911 1.75 1.75 0 0 0 -3.5 0c0 .987-.436 1.422-1.423 2.313a5.968 5.968 0 0 0 0 9.822c.987.891 1.423 1.326 1.423 2.313s-.436 1.42-1.422 2.31a6.24 6.24 0 0 0 -2.578 4.909 1.75 1.75 0 0 0 3.5 0c0-.985.436-1.42 1.422-2.31a5.964 5.964 0 0 0 0-9.819c-.987-.892-1.423-1.327-1.423-2.314s.437-1.422 1.424-2.313z"/><path d="m81.673 104.744a6.245 6.245 0 0 0 2.577-4.911 1.75 1.75 0 0 0 -3.5 0c0 .987-.436 1.422-1.423 2.313a5.968 5.968 0 0 0 0 9.822c.987.891 1.423 1.326 1.423 2.313s-.436 1.42-1.422 2.31a6.24 6.24 0 0 0 -2.578 4.909 1.75 1.75 0 0 0 3.5 0c0-.985.436-1.42 1.422-2.31a5.964 5.964 0 0 0 0-9.819c-.987-.892-1.423-1.327-1.423-2.314s.437-1.422 1.424-2.313z"/><path d="m98.173 104.744a6.245 6.245 0 0 0 2.577-4.911 1.75 1.75 0 0 0 -3.5 0c0 .987-.436 1.422-1.423 2.313a5.968 5.968 0 0 0 0 9.822c.987.891 1.423 1.326 1.423 2.313s-.436 1.42-1.422 2.31a6.24 6.24 0 0 0 -2.578 4.909 1.75 1.75 0 0 0 3.5 0c0-.985.436-1.42 1.422-2.31a5.964 5.964 0 0 0 0-9.819c-.987-.892-1.423-1.327-1.423-2.314s.437-1.422 1.424-2.313z"/><path d="m18.5 40.942a4.75 4.75 0 1 0 -4.75-4.75 4.755 4.755 0 0 0 4.75 4.75zm0-6a1.25 1.25 0 1 1 -1.25 1.25 1.252 1.252 0 0 1 1.25-1.25z"/><path d="m30.558 40.942a4.75 4.75 0 1 0 -4.75-4.75 4.755 4.755 0 0 0 4.75 4.75zm0-6a1.25 1.25 0 1 1 -1.25 1.25 1.251 1.251 0 0 1 1.25-1.25z"/><path d="m86.167 37.942h26.333a1.75 1.75 0 0 0 0-3.5h-26.333a1.75 1.75 0 0 0 0 3.5z"/></svg>