<?xml version="1.0" standalone="no"?>
<!DOCTYPE svg PUBLIC "-//W3C//DTD SVG 20010904//EN"
 "http://www.w3.org/TR/2001/REC-SVG-20010904/DTD/svg10.dtd">
<svg version="1.0" xmlns="http://www.w3.org/2000/svg"
 width="512.000000pt" height="512.000000pt" viewBox="0 0 512.000000 512.000000"
 preserveAspectRatio="xMidYMid meet">
<metadata>
Created by potrace 1.16, written by Peter Selinger 2001-2019
</metadata>
<g transform="translate(0.000000,512.000000) scale(0.100000,-0.100000)"
fill="#000000" stroke="none">
<path d="M2026 5101 c-15 -10 -36 -30 -45 -45 -9 -14 -44 -136 -76 -271 l-60
-245 -65 -26 c-36 -14 -76 -31 -90 -36 -22 -9 -48 3 -235 116 -115 69 -225
129 -242 132 -85 16 -82 18 -455 -354 -247 -246 -351 -356 -359 -380 -22 -66
-7 -104 126 -325 113 -189 126 -215 117 -237 -5 -14 -22 -54 -36 -90 l-26 -65
-243 -59 c-133 -32 -255 -66 -272 -76 -67 -41 -65 -25 -65 -580 0 -555 -2
-539 65 -580 17 -10 139 -44 272 -76 l243 -59 26 -65 c14 -36 31 -76 36 -90 9
-22 -3 -48 -116 -235 -69 -115 -129 -225 -132 -242 -16 -85 -18 -82 354 -455
246 -247 356 -351 380 -359 66 -22 104 -7 325 126 189 113 215 126 237 117 14
-5 54 -22 90 -36 l65 -26 56 -228 57 -227 1 617 1 618 -47 24 c-82 41 -204
134 -296 224 -187 185 -310 408 -373 677 -27 115 -27 435 0 550 64 275 189
498 384 687 110 106 204 174 342 243 112 57 166 63 218 26 69 -49 67 -28 70
-622 l3 -536 144 -97 c80 -53 149 -96 155 -96 6 0 75 43 155 96 l144 97 3 536
c3 594 1 573 70 622 52 37 106 31 218 -26 138 -69 232 -137 342 -243 190 -185
312 -397 379 -666 30 -115 37 -386 15 -513 -34 -199 -119 -400 -236 -565 -105
-147 -302 -322 -442 -394 l-48 -24 1 -618 1 -617 57 226 56 226 89 38 c65 27
94 35 105 28 409 -248 450 -268 523 -244 24 8 134 112 380 359 372 373 370
370 354 455 -3 17 -63 127 -132 242 -113 187 -125 213 -116 235 5 14 22 54 36
90 l26 65 246 60 c135 33 257 67 271 76 14 9 34 30 44 45 18 27 19 56 19 534
0 478 -1 507 -19 534 -10 15 -30 36 -44 45 -14 9 -136 43 -270 76 l-244 60
-37 86 c-20 47 -36 88 -36 92 0 3 56 99 125 214 69 114 128 223 131 241 16 84
18 81 -354 454 -246 247 -356 351 -380 359 -73 24 -114 4 -523 -244 -11 -7
-40 1 -105 28 l-89 38 -60 244 c-32 134 -67 255 -76 269 -9 15 -30 35 -45 45
-27 18 -56 19 -534 19 -478 0 -507 -1 -534 -19z"/>
<path d="M1880 3367 c-181 -151 -307 -366 -355 -606 -26 -128 -17 -365 19
-486 107 -361 368 -622 731 -732 85 -25 101 -27 285 -27 183 0 201 2 285 27
360 108 624 372 731 732 36 121 45 358 19 486 -48 240 -174 455 -355 606 l-75
63 -5 -453 c-5 -410 -7 -455 -23 -485 -13 -24 -84 -77 -273 -202 -243 -162
-257 -170 -304 -170 -47 0 -61 8 -304 170 -189 125 -260 178 -273 202 -16 30
-18 75 -23 485 l-5 453 -75 -63z"/>
<path d="M2260 626 l0 -626 300 0 300 0 0 626 c0 591 -1 625 -17 620 -52 -16
-172 -27 -283 -27 -111 0 -231 11 -282 27 -17 5 -18 -29 -18 -620z"/>
</g>
</svg>
