<svg id="Layer_1" height="512" viewBox="0 0 128 128" width="512" xmlns="http://www.w3.org/2000/svg" data-name="Layer 1"><path d="m121.5 22.442h-115a1.751 1.751 0 0 0 -1.75 1.75v79.616a1.751 1.751 0 0 0 1.75 1.75h115a1.751 1.751 0 0 0 1.75-1.75v-79.616a1.751 1.751 0 0 0 -1.75-1.75zm-1.75 79.616h-111.5v-76.116h111.5z"/><path d="m15.5 96.558h69.833a1.75 1.75 0 0 0 1.75-1.75v-61.616a1.75 1.75 0 0 0 -1.75-1.75h-69.833a1.751 1.751 0 0 0 -1.75 1.75v61.616a1.751 1.751 0 0 0 1.75 1.75zm1.75-61.616h66.333v58.116h-66.333z"/><path d="m103.417 46.942a7.75 7.75 0 1 0 -7.75-7.75 7.759 7.759 0 0 0 7.75 7.75zm0-12a4.25 4.25 0 1 1 -4.25 4.25 4.255 4.255 0 0 1 4.25-4.25z"/><path d="m103.417 96.558a7.75 7.75 0 1 0 -7.75-7.75 7.759 7.759 0 0 0 7.75 7.75zm0-12a4.25 4.25 0 1 1 -4.25 4.25 4.255 4.255 0 0 1 4.25-4.25z"/><circle cx="103.417" cy="64.417" r="3"/><circle cx="103.417" cy="54.609" r="3"/><path d="m97.417 75.583h12a1.75 1.75 0 0 0 0-3.5h-12a1.75 1.75 0 0 0 0 3.5z"/></svg>