<svg id="Layer_1" height="512" viewBox="0 0 128 128" width="512" xmlns="http://www.w3.org/2000/svg" data-name="Layer 1"><path d="m103.808 4.832h-79.616a1.751 1.751 0 0 0 -1.75 1.75v114.836a1.751 1.751 0 0 0 1.75 1.75h79.616a1.751 1.751 0 0 0 1.75-1.75v-114.836a1.751 1.751 0 0 0 -1.75-1.75zm-1.75 77.668h-36.308v-74.168h36.308zm-39.808-74.168v74.168h-36.308v-74.168zm-36.308 111.336v-33.668h76.116v33.668z"/><path d="m70 69.458a1.751 1.751 0 0 0 1.75-1.75v-44.584a1.75 1.75 0 1 0 -3.5 0v44.584a1.751 1.751 0 0 0 1.75 1.75z"/><path d="m58 69.458a1.751 1.751 0 0 0 1.75-1.75v-44.584a1.75 1.75 0 1 0 -3.5 0v44.584a1.751 1.751 0 0 0 1.75 1.75z"/><path d="m74 88.5h-20a1.75 1.75 0 0 0 0 3.5h20a1.75 1.75 0 0 0 0-3.5z"/><path d="m33.1 69.458h16a1.751 1.751 0 0 0 1.75-1.75v-20a1.751 1.751 0 0 0 -1.75-1.75h-16a1.751 1.751 0 0 0 -1.75 1.75v20a1.751 1.751 0 0 0 1.75 1.75zm1.75-20h4.5v4.25a1.75 1.75 0 0 0 3.5 0v-4.25h4.5v16.5h-12.5z"/></svg>