<svg id="Layer_1" height="512" viewBox="0 0 128 128" width="512" xmlns="http://www.w3.org/2000/svg" data-name="Layer 1"><path d="m58.656 95.411a1.75 1.75 0 0 0 -.208 2.466 20.462 20.462 0 0 1 3.885 6.936 1.751 1.751 0 0 0 1.667 1.214 1.724 1.724 0 0 0 .536-.085 1.75 1.75 0 0 0 1.13-2.2 23.926 23.926 0 0 0 -4.543-8.12 1.749 1.749 0 0 0 -2.467-.211z"/><path d="m123.17 120.8-2.82-8.75a1.737 1.737 0 0 0 -1.66-1.22h-10.74a6.729 6.729 0 0 0 -4.95-5.76v-81.07a19.25 19.25 0 0 0 -38.5 0v21.7a33.533 33.533 0 0 1 -2.47 12.65l-8.08 18.79a6.187 6.187 0 0 0 -6.51 3.59v.008a36.9 36.9 0 0 0 -8.53-1.018h-15.86c-10.091 0-18.3 7.532-18.3 16.79v8.67c0 5.216 4.26 9.565 9.736 10.226v.014a11.746 11.746 0 0 0 22.12.08h23.774c6.33 0 11.48-4.737 11.48-10.56a9.909 9.909 0 0 0 -.485-3.039 29.972 29.972 0 0 0 -5.358-9.777c-.444-.543-.932-1.1-1.452-1.652l-.023-.024-.042-.04-.047-.046a32.411 32.411 0 0 0 -5.653-4.724v-.008a6.111 6.111 0 0 0 .47-2.37 6.2 6.2 0 0 0 -2.13-4.68v-.01l8.11-18.87a36.768 36.768 0 0 0 2.75-14v-21.7a15.75 15.75 0 0 1 31.5 0v81.07a6.729 6.729 0 0 0 -4.95 5.76h-10.74a1.737 1.737 0 0 0 -1.66 1.22l-2.82 8.75a1.741 1.741 0 0 0 .26 1.56 1.721 1.721 0 0 0 1.41.72h40.5a1.721 1.721 0 0 0 1.41-.72 1.741 1.741 0 0 0 .26-1.56zm-71.11-40.02a2.5 2.5 0 0 1 1.01-.2 2.993 2.993 0 0 1 1.14.24 2.551 2.551 0 0 1 .95.73 2.668 2.668 0 0 1 .61 1.71 3.287 3.287 0 0 1 -.05.54v.01a34.825 34.825 0 0 0 -4.855-2.082v-.009a2.694 2.694 0 0 1 1.195-.939zm-29.01 2.44h15.86a33.406 33.406 0 0 1 8.954 1.22c.052.02.1.038.157.054a31.808 31.808 0 0 1 7.571 3.239c.039.028.08.055.121.079a29.491 29.491 0 0 1 3.049 2.105h-48.544a15.156 15.156 0 0 1 12.832-6.697zm2.52 36.53a8.255 8.255 0 0 1 -8.02-6.316c0-.021-.01-.042-.015-.063a8.428 8.428 0 0 1 -.215-1.871 8.25 8.25 0 0 1 16.5 0 8.436 8.436 0 0 1 -.213 1.858c-.005.024-.011.047-.015.07a8.256 8.256 0 0 1 -8.022 6.322zm42.474-16.773a6.389 6.389 0 0 1 .316 1.963c0 3.893-3.58 7.06-7.98 7.06h-23.08a4.1 4.1 0 0 0 .02-.5 11.75 11.75 0 0 0 -23.5 0 1.7 1.7 0 0 0 .01.23 7.024 7.024 0 0 1 -5.58-6.552v-8.668a11.973 11.973 0 0 1 .421-3.093h53.829c.276.308.559.619.806.921a26.49 26.49 0 0 1 4.738 8.639zm32.266 5.493a3.226 3.226 0 0 1 1.88 0 3.269 3.269 0 0 1 2.22 2.36h-6.32a3.269 3.269 0 0 1 2.22-2.36zm-16.91 11.11 1.69-5.25h32.32l1.69 5.25z"/></svg>