<svg id="Layer_1" height="512" viewBox="0 0 128 128" width="512" xmlns="http://www.w3.org/2000/svg" data-name="Layer 1"><path d="m64 42.192a30.654 30.654 0 1 0 30.654 30.654 30.689 30.689 0 0 0 -30.654-30.654zm0 57.808a27.154 27.154 0 1 1 27.154-27.154 27.184 27.184 0 0 1 -27.154 27.154z"/><path d="m81.22 83.065a12.912 12.912 0 0 1 0-20.441 1.751 1.751 0 0 0 .348-2.405 21.655 21.655 0 1 0 0 25.251 1.749 1.749 0 0 0 -.348-2.405zm-17.22 7.935a18.155 18.155 0 1 1 13.742-29.991 16.418 16.418 0 0 0 0 23.676 18.174 18.174 0 0 1 -13.742 6.315z"/><path d="m112.654 4.75h-97.308a1.75 1.75 0 0 0 -1.746 1.75v115a1.75 1.75 0 0 0 1.75 1.75h97.308a1.75 1.75 0 0 0 1.75-1.75v-115a1.75 1.75 0 0 0 -1.754-1.75zm-95.554 3.5h93.8v14.192h-93.8zm0 111.5v-93.808h93.8v93.808z"/><path d="m80.484 9.6a5.75 5.75 0 1 0 5.75 5.75 5.757 5.757 0 0 0 -5.75-5.75zm0 8a2.25 2.25 0 1 1 2.25-2.25 2.253 2.253 0 0 1 -2.25 2.25z"/><path d="m95.545 9.6a5.75 5.75 0 1 0 5.75 5.75 5.757 5.757 0 0 0 -5.75-5.75zm0 8a2.25 2.25 0 1 1 2.25-2.25 2.253 2.253 0 0 1 -2.25 2.25z"/><path d="m63.263 13.6h-34.808a1.75 1.75 0 0 0 0 3.5h34.808a1.75 1.75 0 1 0 0-3.5z"/></svg>