<?xml version="1.0" standalone="no"?>
<!DOCTYPE svg PUBLIC "-//W3C//DTD SVG 20010904//EN"
 "http://www.w3.org/TR/2001/REC-SVG-20010904/DTD/svg10.dtd">
<svg version="1.0" xmlns="http://www.w3.org/2000/svg"
 width="512.000000pt" height="512.000000pt" viewBox="0 0 512.000000 512.000000"
 preserveAspectRatio="xMidYMid meet">

<g transform="translate(0.000000,512.000000) scale(0.100000,-0.100000)"
fill="#000000" stroke="none">
<path d="M569 4911 l-24 -19 0 -2332 0 -2332 24 -19 c23 -19 68 -19 1991 -19
1923 0 1968 0 1991 19 l24 19 0 2332 0 2332 -24 19 c-23 19 -68 19 -1991 19
-1923 0 -1968 0 -1991 -19z m3871 -626 l0 -505 -1880 0 -1880 0 0 505 0 505
1880 0 1880 0 0 -505z m0 -2300 l0 -1655 -1880 0 -1880 0 0 1655 0 1655 1880
0 1880 0 0 -1655z"/>
<path d="M1077 4556 c-81 -30 -154 -113 -178 -201 -27 -97 14 -222 95 -291
112 -96 308 -83 400 27 55 65 71 108 71 194 0 86 -16 129 -71 194 -49 58 -107
84 -198 88 -52 2 -94 -2 -119 -11z m184 -149 c89 -59 89 -185 0 -244 -71 -48
-175 -20 -213 57 -50 98 21 210 132 210 32 0 58 -7 81 -23z"/>
<path d="M3056 4554 c-61 -22 -122 -78 -153 -142 -60 -122 -26 -273 81 -353
59 -45 104 -59 188 -59 239 0 367 292 207 474 -58 66 -126 96 -213 95 -39 0
-89 -7 -110 -15z m200 -155 c36 -33 54 -72 54 -114 0 -42 -18 -81 -54 -114
-39 -37 -128 -41 -175 -9 -40 27 -71 81 -71 123 0 42 31 96 71 123 47 32 136
28 175 -9z"/>
<path d="M3824 4551 c-59 -27 -111 -77 -142 -135 -22 -43 -27 -64 -27 -131 0
-67 5 -88 27 -131 31 -60 84 -109 147 -137 36 -16 60 -19 126 -15 120 6 189
52 248 162 17 32 22 58 22 121 0 70 -4 87 -30 134 -36 65 -92 115 -153 135
-63 22 -167 20 -218 -3z m197 -144 c39 -26 69 -79 69 -122 0 -43 -30 -96 -69
-122 -71 -48 -175 -20 -213 57 -50 98 21 210 132 210 32 0 58 -7 81 -23z"/>
<path d="M1129 3231 l-24 -19 0 -1227 0 -1227 24 -19 c23 -19 60 -19 1431 -19
1371 0 1408 0 1431 19 l24 19 0 1227 0 1227 -24 19 c-23 19 -60 19 -1431 19
-1371 0 -1408 0 -1431 -19z m2751 -1246 l0 -1125 -96 0 -96 0 7 27 c42 167 51
406 22 569 -55 306 -213 525 -398 550 -78 11 -200 -35 -253 -95 l-19 -21 -40
36 c-80 73 -184 98 -283 69 -60 -17 -137 -63 -153 -92 -8 -15 -13 -13 -42 15
-115 113 -295 114 -421 4 l-35 -32 -19 21 c-53 59 -176 106 -251 95 -67 -9
-126 -39 -183 -92 -210 -196 -293 -637 -195 -1026 l7 -28 -96 0 -96 0 0 1125
0 1125 1320 0 1320 0 0 -1125z m-1985 -134 c22 -10 53 -32 69 -49 l29 -31 -32
-71 c-58 -130 -83 -247 -88 -420 -5 -150 -2 -191 34 -392 l5 -28 -166 0 -165
0 -16 53 c-87 303 -30 703 127 873 43 47 106 84 143 84 11 0 38 -9 60 -19z
m519 -19 c58 -40 62 -58 32 -130 -70 -165 -103 -361 -93 -544 6 -91 25 -219
43 -280 5 -17 -7 -18 -164 -18 l-170 0 -24 93 c-20 81 -23 115 -22 277 0 166
3 195 26 281 61 227 180 371 293 354 22 -3 57 -18 79 -33z m451 19 c22 -10 52
-31 67 -47 l27 -29 -34 -85 c-63 -159 -77 -228 -82 -420 -5 -168 0 -229 33
-383 l6 -27 -168 2 -169 3 -18 70 c-62 244 -38 541 60 743 56 114 142 191 213
191 14 0 43 -8 65 -18z m480 0 c207 -94 316 -582 209 -940 l-15 -51 -254 0
-254 0 -11 41 c-43 159 -53 387 -24 540 39 207 126 364 229 410 50 23 70 23
120 0z"/>
<path d="M2095 2985 c-31 -30 -32 -65 -2 -93 23 -22 25 -22 468 -22 l446 0 21
23 c29 30 28 62 -3 92 l-24 25 -441 0 -441 0 -24 -25z"/>
</g>
</svg>
