<?xml version="1.0" standalone="no"?>
<!DOCTYPE svg PUBLIC "-//W3C//DTD SVG 20010904//EN"
 "http://www.w3.org/TR/2001/REC-SVG-20010904/DTD/svg10.dtd">
<svg version="1.0" xmlns="http://www.w3.org/2000/svg"
 width="1280.000000pt" height="720.000000pt" viewBox="0 0 1280.000000 720.000000"
 preserveAspectRatio="xMidYMid meet">
<metadata>
Created by potrace 1.15, written by Peter Selinger 2001-2017
</metadata>
<g transform="translate(0.000000,720.000000) scale(0.100000,-0.100000)"
fill="#000000" stroke="none">
<path d="M1665 4534 c-309 -76 -595 -288 -748 -554 -38 -65 -44 -118 -18 -151
37 -47 60 -45 431 41 200 47 356 78 370 75 98 -21 213 -263 225 -475 5 -81
-16 -223 -41 -277 -25 -52 -77 -78 -244 -123 -85 -23 -232 -66 -326 -96 -157
-49 -172 -56 -177 -79 -4 -22 6 -34 72 -85 100 -79 171 -113 316 -151 104 -27
142 -32 280 -36 293 -9 357 13 654 222 284 200 530 313 724 335 199 23 2676
45 4942 45 l1560 0 115 -29 c103 -25 453 -156 540 -201 132 -68 361 -110 511
-94 193 22 389 99 476 188 85 87 152 185 180 262 23 66 26 90 27 214 1 150
-12 209 -71 327 -33 66 -121 181 -169 221 -105 89 -260 167 -330 167 -25 0
-77 7 -116 16 -59 14 -87 14 -172 5 -136 -14 -248 -53 -496 -173 -208 -100
-394 -143 -673 -153 -89 -3 -1019 -8 -2067 -10 -1048 -1 -2314 -8 -2815 -15
-1022 -14 -1450 -10 -1595 13 -106 18 -409 106 -472 138 -63 32 -198 127 -248
174 -25 23 -73 64 -108 91 -35 27 -84 66 -110 86 -79 63 -139 81 -282 84 -69
1 -134 1 -145 -2z m9166 -455 c19 -7 54 -27 80 -45 37 -27 59 -34 120 -41 l74
-8 23 -67 c20 -57 32 -73 78 -109 l53 -43 -6 -72 c-5 -58 -2 -83 17 -138 l22
-67 -60 -68 c-56 -63 -61 -72 -64 -121 l-3 -54 -79 -21 c-69 -18 -83 -27 -120
-67 -39 -44 -44 -47 -106 -52 -36 -3 -87 -9 -115 -12 -47 -6 -53 -4 -100 34
-36 28 -67 43 -110 52 -75 16 -121 49 -130 92 -12 56 -33 86 -83 119 -26 18
-50 37 -54 43 -12 18 -9 59 8 109 15 45 15 50 -7 111 l-23 64 40 44 c34 37 43
56 54 112 l12 67 72 36 c39 19 85 49 103 65 l32 31 76 -10 c41 -5 78 -7 81 -4
5 6 63 29 75 30 3 1 21 -4 40 -10z"/>
</g>
</svg>
