<?xml version="1.0" standalone="no"?>
<!DOCTYPE svg PUBLIC "-//W3C//DTD SVG 20010904//EN"
 "http://www.w3.org/TR/2001/REC-SVG-20010904/DTD/svg10.dtd">
<svg version="1.0" xmlns="http://www.w3.org/2000/svg"
 width="512.000000pt" height="512.000000pt" viewBox="0 0 512.000000 512.000000"
 preserveAspectRatio="xMidYMid meet">

<g transform="translate(0.000000,512.000000) scale(0.100000,-0.100000)"
fill="#000000" stroke="none">
<path d="M3200 4916 c-158 -34 -275 -99 -395 -220 -75 -75 -99 -107 -138 -186
-83 -167 -80 -139 -87 -810 -8 -648 -7 -644 -70 -830 -16 -47 -100 -251 -188
-455 l-159 -370 -54 -8 c-89 -13 -166 -61 -206 -130 -7 -13 -18 -13 -83 1 -63
14 -151 16 -560 17 l-485 0 -99 -34 c-217 -75 -372 -221 -449 -424 l-31 -82
-4 -257 c-3 -218 -1 -266 13 -315 41 -144 162 -257 318 -297 49 -12 54 -16 83
-72 147 -277 512 -337 740 -122 30 28 67 78 86 114 l33 64 500 0 c542 0 572 3
677 56 71 36 158 126 193 199 41 85 47 205 15 301 -73 222 -229 435 -434 592
l-61 47 9 46 c13 68 0 131 -40 191 l-36 52 166 386 c275 639 257 551 265 1320
l6 595 27 72 c47 131 106 212 216 300 199 158 487 175 709 41 117 -71 224
-206 275 -348 l23 -65 3 -1682 2 -1683 -34 -14 c-61 -25 -124 -92 -147 -157
l-22 -59 -216 0 c-152 0 -223 -4 -241 -13 -20 -10 -34 -43 -87 -202 -34 -105
-62 -200 -63 -212 0 -13 9 -32 20 -43 20 -20 33 -20 860 -20 827 0 840 0 860
20 11 11 20 30 20 43 -1 12 -29 107 -63 212 -53 159 -67 192 -87 202 -18 9
-89 13 -242 13 l-216 0 -17 49 c-20 62 -82 133 -140 161 l-45 22 -2 1686 -3
1687 -23 75 c-42 135 -97 225 -202 330 -81 82 -109 103 -190 143 -52 26 -122
54 -155 63 -83 22 -264 27 -345 10z m-1010 -3045 c23 -17 50 -84 38 -96 -3 -3
-38 10 -79 28 -41 19 -82 37 -93 41 -15 5 -16 9 -5 22 31 38 92 40 139 5z
m-430 -96 c188 -30 410 -118 535 -212 l50 -38 -488 -3 c-269 -1 -705 -1 -969
0 l-481 3 37 43 c75 91 177 159 291 195 77 24 73 24 515 26 328 1 435 -2 510
-14z m797 -462 c138 -183 197 -356 161 -475 -17 -56 -88 -132 -156 -165 l-57
-28 -507 -3 -508 -3 0 43 c-1 196 -153 380 -355 433 -74 19 -142 19 -224 0
-183 -44 -324 -201 -353 -393 l-10 -70 -32 10 c-76 26 -154 109 -176 187 -11
39 -14 432 -4 494 l7 37 1081 0 1082 0 51 -67z m-1402 -352 c62 -27 129 -91
163 -156 24 -44 27 -61 27 -145 0 -83 -3 -101 -27 -145 -32 -62 -103 -129
-166 -158 -71 -33 -188 -31 -262 4 -80 37 -125 81 -162 157 -28 57 -33 76 -33
142 1 85 28 159 83 221 32 37 115 87 166 100 53 14 158 4 211 -20z m2932 -182
c34 -12 83 -58 83 -76 0 -10 -28 -13 -120 -13 -130 0 -140 5 -99 49 21 23 73
50 96 51 6 0 24 -5 40 -11z m635 -311 c15 -46 29 -93 33 -105 l6 -23 -711 0
-711 0 6 23 c4 12 18 59 33 105 l26 82 646 0 646 0 26 -82z"/>
<path d="M2345 1295 c-14 -13 -25 -32 -25 -43 0 -10 21 -47 46 -83 46 -65 105
-174 119 -219 20 -66 83 -90 123 -47 28 30 28 42 -3 124 -52 138 -164 293
-211 293 -14 0 -36 -11 -49 -25z"/>
</g>
</svg>
