<?xml version="1.0" standalone="no"?>
<!DOCTYPE svg PUBLIC "-//W3C//DTD SVG 20010904//EN"
 "http://www.w3.org/TR/2001/REC-SVG-20010904/DTD/svg10.dtd">
<svg version="1.0" xmlns="http://www.w3.org/2000/svg"
 width="512.000000pt" height="512.000000pt" viewBox="0 0 512.000000 512.000000"
 preserveAspectRatio="xMidYMid meet">

<g transform="translate(0.000000,512.000000) scale(0.100000,-0.100000)"
fill="#000000" stroke="none">
<path d="M569 4911 l-24 -19 0 -2332 0 -2332 24 -19 c23 -19 68 -19 1991 -19
1923 0 1968 0 1991 19 l24 19 0 2332 0 2332 -24 19 c-23 19 -68 19 -1991 19
-1923 0 -1968 0 -1991 -19z m3869 -403 l-3 -283 -1875 0 -1875 0 -3 283 -2
282 1880 0 1880 0 -2 -282z m2 -2303 l0 -1875 -1880 0 -1880 0 0 1875 0 1875
1880 0 1880 0 0 -1875z"/>
<path d="M3173 4729 c-170 -33 -240 -243 -125 -371 48 -53 102 -78 172 -78
201 0 305 243 164 384 -57 57 -134 81 -211 65z m76 -140 c32 -11 61 -52 61
-88 0 -11 -12 -33 -26 -50 -21 -25 -33 -31 -65 -31 -94 0 -123 121 -39 162 19
10 35 18 36 18 1 0 15 -5 33 -11z"/>
<path d="M3780 4731 c-117 -24 -206 -148 -185 -258 22 -117 112 -193 227 -193
126 1 227 100 228 223 0 144 -131 255 -270 228z m75 -145 c91 -38 66 -166 -34
-166 -32 0 -44 6 -65 31 -14 17 -26 39 -26 49 0 35 24 73 55 86 37 16 30 16
70 0z"/>
<path d="M1120 4573 c-49 -18 -64 -68 -34 -111 l15 -22 730 0 c716 0 729 0
749 20 25 25 26 61 1 91 l-19 24 -714 2 c-392 1 -720 -1 -728 -4z"/>
<path d="M2351 3414 c-112 -19 -244 -64 -360 -124 -501 -259 -759 -842 -616
-1392 157 -605 749 -996 1365 -904 517 78 926 474 1026 994 25 126 22 328 -6
462 -46 224 -149 422 -305 588 -245 260 -554 394 -905 391 -63 -1 -153 -7
-199 -15z m481 -157 c441 -116 761 -492 808 -949 25 -247 -44 -511 -190 -722
-59 -86 -199 -224 -281 -278 -377 -249 -841 -249 -1216 -1 -83 55 -223 192
-282 278 -182 263 -240 591 -160 900 31 118 125 305 203 402 165 204 391 337
661 389 113 22 338 12 457 -19z"/>
<path d="M2405 3059 c-332 -62 -598 -311 -686 -644 -30 -113 -30 -307 0 -420
83 -310 322 -547 636 -631 53 -14 104 -18 210 -18 122 1 151 4 228 27 161 49
287 126 395 241 109 117 111 135 17 226 -209 203 -207 529 4 738 78 77 82 100
28 165 -175 214 -417 329 -684 326 -54 -1 -120 -5 -148 -10z m310 -144 c122
-26 314 -134 375 -212 l20 -25 -48 -54 c-130 -145 -183 -379 -132 -578 24 -95
79 -202 137 -266 l43 -48 -70 -65 c-78 -72 -196 -137 -300 -164 -100 -27 -284
-24 -380 6 -253 78 -440 270 -506 521 -26 97 -24 263 4 363 75 267 283 465
547 522 81 18 225 18 310 0z"/>
</g>
</svg>
